<svg width="78" height="32" viewBox="0 0 78 32" fill="none" xmlns="http://www.w3.org/2000/svg">
<mask id="path-1-outside-1_5506_153" maskUnits="userSpaceOnUse" x="2" y="5" width="20" height="26" fill="black">
<rect fill="white" x="2" y="5" width="20" height="26"/>
<path d="M4.16 6.728H19.84V7.912H5.344V16.936H17.952V18.12H5.344V27.816H19.84V29H4.16V6.728Z"/>
</mask>
<path d="M4.16 6.728H19.84V7.912H5.344V16.936H17.952V18.12H5.344V27.816H19.84V29H4.16V6.728Z" fill="#BA0101"/>
<path d="M4.16 6.728V5.428H2.86V6.728H4.16ZM19.84 6.728H21.14V5.428H19.84V6.728ZM19.84 7.912V9.212H21.14V7.912H19.84ZM5.344 7.912V6.612H4.044V7.912H5.344ZM5.344 16.936H4.044V18.236H5.344V16.936ZM17.952 16.936H19.252V15.636H17.952V16.936ZM17.952 18.12V19.42H19.252V18.12H17.952ZM5.344 18.12V16.82H4.044V18.12H5.344ZM5.344 27.816H4.044V29.116H5.344V27.816ZM19.84 27.816H21.14V26.516H19.84V27.816ZM19.84 29V30.3H21.14V29H19.84ZM4.16 29H2.86V30.3H4.16V29ZM4.16 6.728V8.028H19.84V6.728V5.428H4.16V6.728ZM19.84 6.728H18.54V7.912H19.84H21.14V6.728H19.84ZM19.84 7.912V6.612H5.344V7.912V9.212H19.84V7.912ZM5.344 7.912H4.044V16.936H5.344H6.644V7.912H5.344ZM5.344 16.936V18.236H17.952V16.936V15.636H5.344V16.936ZM17.952 16.936H16.652V18.12H17.952H19.252V16.936H17.952ZM17.952 18.12V16.82H5.344V18.12V19.42H17.952V18.12ZM5.344 18.12H4.044V27.816H5.344H6.644V18.12H5.344ZM5.344 27.816V29.116H19.84V27.816V26.516H5.344V27.816ZM19.84 27.816H18.54V29H19.84H21.14V27.816H19.84ZM19.84 29V27.7H4.16V29V30.3H19.84V29ZM4.16 29H5.46V6.728H4.16H2.86V29H4.16Z" fill="#BA0101" mask="url(#path-1-outside-1_5506_153)"/>
<mask id="path-3-outside-2_5506_153" maskUnits="userSpaceOnUse" x="28" y="6" width="22" height="24" fill="black">
<rect fill="white" x="28" y="6" width="22" height="24"/>
<path d="M38.072 17.864L29.528 6.728H31.064L38.84 16.872L46.648 6.728H48.152L39.608 17.864L48.152 29H46.648L38.84 18.856L31.064 29H29.528L38.072 17.864Z"/>
</mask>
<path d="M38.072 17.864L29.528 6.728H31.064L38.84 16.872L46.648 6.728H48.152L39.608 17.864L48.152 29H46.648L38.84 18.856L31.064 29H29.528L38.072 17.864Z" fill="black"/>
<path d="M38.072 17.864L38.6274 18.2901L38.9543 17.864L38.6274 17.4379L38.072 17.864ZM29.528 6.728V6.028H28.1086L28.9726 7.1541L29.528 6.728ZM31.064 6.728L31.6196 6.30213L31.4094 6.028H31.064V6.728ZM38.84 16.872L38.2844 17.2979L38.8389 18.0211L39.3947 17.299L38.84 16.872ZM46.648 6.728V6.028H46.3035L46.0933 6.30103L46.648 6.728ZM48.152 6.728L48.7074 7.1541L49.5714 6.028H48.152V6.728ZM39.608 17.864L39.0526 17.4379L38.7257 17.864L39.0526 18.2901L39.608 17.864ZM48.152 29V29.7H49.5714L48.7074 28.5739L48.152 29ZM46.648 29L46.0933 29.427L46.3035 29.7H46.648V29ZM38.84 18.856L39.3947 18.429L38.8389 17.7069L38.2844 18.4301L38.84 18.856ZM31.064 29V29.7H31.4094L31.6196 29.4259L31.064 29ZM29.528 29L28.9726 28.5739L28.1086 29.7H29.528V29ZM38.072 17.864L38.6274 17.4379L30.0834 6.3019L29.528 6.728L28.9726 7.1541L37.5166 18.2901L38.072 17.864ZM29.528 6.728V7.428H31.064V6.728V6.028H29.528V6.728ZM31.064 6.728L30.5084 7.15386L38.2844 17.2979L38.84 16.872L39.3956 16.4461L31.6196 6.30213L31.064 6.728ZM38.84 16.872L39.3947 17.299L47.2027 7.15496L46.648 6.728L46.0933 6.30103L38.2853 16.445L38.84 16.872ZM46.648 6.728V7.428H48.152V6.728V6.028H46.648V6.728ZM48.152 6.728L47.5966 6.3019L39.0526 17.4379L39.608 17.864L40.1634 18.2901L48.7074 7.1541L48.152 6.728ZM39.608 17.864L39.0526 18.2901L47.5966 29.4261L48.152 29L48.7074 28.5739L40.1634 17.4379L39.608 17.864ZM48.152 29V28.3H46.648V29V29.7H48.152V29ZM46.648 29L47.2027 28.573L39.3947 18.429L38.84 18.856L38.2853 19.283L46.0933 29.427L46.648 29ZM38.84 18.856L38.2844 18.4301L30.5084 28.5741L31.064 29L31.6196 29.4259L39.3956 19.2819L38.84 18.856ZM31.064 29V28.3H29.528V29V29.7H31.064V29ZM29.528 29L30.0834 29.4261L38.6274 18.2901L38.072 17.864L37.5166 17.4379L28.9726 28.5739L29.528 29Z" fill="black" mask="url(#path-3-outside-2_5506_153)"/>
<mask id="path-5-outside-3_5506_153" maskUnits="userSpaceOnUse" x="55" y="6" width="22" height="24" fill="black">
<rect fill="white" x="55" y="6" width="22" height="24"/>
<path d="M65.232 6.728H66.48L75.632 29H74.352L71.344 21.64H60.368L57.328 29H56.08L65.232 6.728ZM60.848 20.488H70.864L65.84 8.264L60.848 20.488Z"/>
</mask>
<path d="M65.232 6.728H66.48L75.632 29H74.352L71.344 21.64H60.368L57.328 29H56.08L65.232 6.728ZM60.848 20.488H70.864L65.84 8.264L60.848 20.488Z" fill="black"/>
<path d="M65.232 6.728V6.028H64.7628L64.5845 6.46194L65.232 6.728ZM66.48 6.728L67.1275 6.46194L66.9492 6.028H66.48V6.728ZM75.632 29V29.7H76.6764L76.2795 28.7339L75.632 29ZM74.352 29L73.704 29.2648L73.8819 29.7H74.352V29ZM71.344 21.64L71.992 21.3752L71.8141 20.94H71.344V21.64ZM60.368 21.64V20.94H59.8998L59.721 21.3728L60.368 21.64ZM57.328 29V29.7H57.7962L57.975 29.2672L57.328 29ZM56.08 29L55.4325 28.7339L55.0356 29.7H56.08V29ZM60.848 20.488L60.2 20.2234L59.806 21.188H60.848V20.488ZM70.864 20.488V21.188H71.9085L71.5114 20.2219L70.864 20.488ZM65.84 8.264L66.4875 7.9979L65.8379 6.41754L65.192 7.99935L65.84 8.264ZM65.232 6.728V7.428H66.48V6.728V6.028H65.232V6.728ZM66.48 6.728L65.8325 6.99405L74.9845 29.2661L75.632 29L76.2795 28.7339L67.1275 6.46194L66.48 6.728ZM75.632 29V28.3H74.352V29V29.7H75.632V29ZM74.352 29L75 28.7352L71.992 21.3752L71.344 21.64L70.696 21.9048L73.704 29.2648L74.352 29ZM71.344 21.64V20.94H60.368V21.64V22.34H71.344V21.64ZM60.368 21.64L59.721 21.3728L56.681 28.7328L57.328 29L57.975 29.2672L61.015 21.9072L60.368 21.64ZM57.328 29V28.3H56.08V29V29.7H57.328V29ZM56.08 29L56.7275 29.2661L65.8795 6.99405L65.232 6.728L64.5845 6.46194L55.4325 28.7339L56.08 29ZM60.848 20.488V21.188H70.864V20.488V19.788H60.848V20.488ZM70.864 20.488L71.5114 20.2219L66.4875 7.9979L65.84 8.264L65.1925 8.5301L70.2166 20.7541L70.864 20.488ZM65.84 8.264L65.192 7.99935L60.2 20.2234L60.848 20.488L61.496 20.7526L66.488 8.52865L65.84 8.264Z" fill="black" mask="url(#path-5-outside-3_5506_153)"/>
</svg>
