<svg width="78" height="32" viewBox="0 0 78 32" fill="none" xmlns="http://www.w3.org/2000/svg">
<mask id="path-1-outside-1_5306_3774" maskUnits="userSpaceOnUse" x="3" y="5" width="18" height="25" fill="black">
<rect fill="white" x="3" y="5" width="18" height="25"/>
<path d="M4.16 6.728H19.84V7.912H5.344V16.936H17.952V18.12H5.344V27.816H19.84V29H4.16V6.728Z"/>
</mask>
<path d="M4.16 6.728H19.84V7.912H5.344V16.936H17.952V18.12H5.344V27.816H19.84V29H4.16V6.728Z" fill="#BA0101"/>
<path d="M4.16 6.728V5.728H3.16V6.728H4.16ZM19.84 6.728H20.84V5.728H19.84V6.728ZM19.84 7.912V8.912H20.84V7.912H19.84ZM5.344 7.912V6.912H4.344V7.912H5.344ZM5.344 16.936H4.344V17.936H5.344V16.936ZM17.952 16.936H18.952V15.936H17.952V16.936ZM17.952 18.12V19.12H18.952V18.12H17.952ZM5.344 18.12V17.12H4.344V18.12H5.344ZM5.344 27.816H4.344V28.816H5.344V27.816ZM19.84 27.816H20.84V26.816H19.84V27.816ZM19.84 29V30H20.84V29H19.84ZM4.16 29H3.16V30H4.16V29ZM4.16 6.728V7.728H19.84V6.728V5.728H4.16V6.728ZM19.84 6.728H18.84V7.912H19.84H20.84V6.728H19.84ZM19.84 7.912V6.912H5.344V7.912V8.912H19.84V7.912ZM5.344 7.912H4.344V16.936H5.344H6.344V7.912H5.344ZM5.344 16.936V17.936H17.952V16.936V15.936H5.344V16.936ZM17.952 16.936H16.952V18.12H17.952H18.952V16.936H17.952ZM17.952 18.12V17.12H5.344V18.12V19.12H17.952V18.12ZM5.344 18.12H4.344V27.816H5.344H6.344V18.12H5.344ZM5.344 27.816V28.816H19.84V27.816V26.816H5.344V27.816ZM19.84 27.816H18.84V29H19.84H20.84V27.816H19.84ZM19.84 29V28H4.16V29V30H19.84V29ZM4.16 29H5.16V6.728H4.16H3.16V29H4.16Z" fill="#BA0101" mask="url(#path-1-outside-1_5306_3774)"/>
<mask id="path-3-outside-2_5306_3774" maskUnits="userSpaceOnUse" x="28" y="6" width="22" height="24" fill="black">
<rect fill="white" x="28" y="6" width="22" height="24"/>
<path d="M38.072 17.864L29.528 6.728H31.064L38.84 16.872L46.648 6.728H48.152L39.608 17.864L48.152 29H46.648L38.84 18.856L31.064 29H29.528L38.072 17.864Z"/>
</mask>
<path d="M38.072 17.864L29.528 6.728H31.064L38.84 16.872L46.648 6.728H48.152L39.608 17.864L48.152 29H46.648L38.84 18.856L31.064 29H29.528L38.072 17.864Z" fill="white"/>
<path d="M38.072 17.864L38.6274 18.2901L38.9543 17.864L38.6274 17.4379L38.072 17.864ZM29.528 6.728V6.028H28.1086L28.9726 7.1541L29.528 6.728ZM31.064 6.728L31.6196 6.30213L31.4094 6.028H31.064V6.728ZM38.84 16.872L38.2844 17.2979L38.8389 18.0211L39.3947 17.299L38.84 16.872ZM46.648 6.728V6.028H46.3035L46.0933 6.30103L46.648 6.728ZM48.152 6.728L48.7074 7.1541L49.5714 6.028H48.152V6.728ZM39.608 17.864L39.0526 17.4379L38.7257 17.864L39.0526 18.2901L39.608 17.864ZM48.152 29V29.7H49.5714L48.7074 28.5739L48.152 29ZM46.648 29L46.0933 29.427L46.3035 29.7H46.648V29ZM38.84 18.856L39.3947 18.429L38.8389 17.7069L38.2844 18.4301L38.84 18.856ZM31.064 29V29.7H31.4094L31.6196 29.4259L31.064 29ZM29.528 29L28.9726 28.5739L28.1086 29.7H29.528V29ZM38.072 17.864L38.6274 17.4379L30.0834 6.3019L29.528 6.728L28.9726 7.1541L37.5166 18.2901L38.072 17.864ZM29.528 6.728V7.428H31.064V6.728V6.028H29.528V6.728ZM31.064 6.728L30.5084 7.15386L38.2844 17.2979L38.84 16.872L39.3956 16.4461L31.6196 6.30213L31.064 6.728ZM38.84 16.872L39.3947 17.299L47.2027 7.15497L46.648 6.728L46.0933 6.30103L38.2853 16.445L38.84 16.872ZM46.648 6.728V7.428H48.152V6.728V6.028H46.648V6.728ZM48.152 6.728L47.5966 6.3019L39.0526 17.4379L39.608 17.864L40.1634 18.2901L48.7074 7.1541L48.152 6.728ZM39.608 17.864L39.0526 18.2901L47.5966 29.4261L48.152 29L48.7074 28.5739L40.1634 17.4379L39.608 17.864ZM48.152 29V28.3H46.648V29V29.7H48.152V29ZM46.648 29L47.2027 28.573L39.3947 18.429L38.84 18.856L38.2853 19.283L46.0933 29.427L46.648 29ZM38.84 18.856L38.2844 18.4301L30.5084 28.5741L31.064 29L31.6196 29.4259L39.3956 19.2819L38.84 18.856ZM31.064 29V28.3H29.528V29V29.7H31.064V29ZM29.528 29L30.0834 29.4261L38.6274 18.2901L38.072 17.864L37.5166 17.4379L28.9726 28.5739L29.528 29Z" fill="white" mask="url(#path-3-outside-2_5306_3774)"/>
<mask id="path-5-outside-3_5306_3774" maskUnits="userSpaceOnUse" x="55" y="6" width="22" height="24" fill="black">
<rect fill="white" x="55" y="6" width="22" height="24"/>
<path d="M65.232 6.728H66.48L75.632 29H74.352L71.344 21.64H60.368L57.328 29H56.08L65.232 6.728ZM60.848 20.488H70.864L65.84 8.264L60.848 20.488Z"/>
</mask>
<path d="M65.232 6.728H66.48L75.632 29H74.352L71.344 21.64H60.368L57.328 29H56.08L65.232 6.728ZM60.848 20.488H70.864L65.84 8.264L60.848 20.488Z" fill="white"/>
<path d="M65.232 6.728V6.228H64.8969L64.7695 6.53796L65.232 6.728ZM66.48 6.728L66.9425 6.53796L66.8151 6.228H66.48V6.728ZM75.632 29V29.5H76.378L76.0945 28.81L75.632 29ZM74.352 29L73.8892 29.1892L74.0162 29.5H74.352V29ZM71.344 21.64L71.8068 21.4508L71.6798 21.14H71.344V21.64ZM60.368 21.64V21.14H60.0335L59.9059 21.4491L60.368 21.64ZM57.328 29V29.5H57.6625L57.7901 29.1909L57.328 29ZM56.08 29L55.6175 28.81L55.334 29.5H56.08V29ZM60.848 20.488L60.3851 20.299L60.1037 20.988H60.848V20.488ZM70.864 20.488V20.988H71.6101L71.3265 20.2979L70.864 20.488ZM65.84 8.264L66.3025 8.07393L65.8385 6.9451L65.3771 8.07497L65.84 8.264ZM65.232 6.728V7.228H66.48V6.728V6.228H65.232V6.728ZM66.48 6.728L66.0175 6.91804L75.1695 29.19L75.632 29L76.0945 28.81L66.9425 6.53796L66.48 6.728ZM75.632 29V28.5H74.352V29V29.5H75.632V29ZM74.352 29L74.8148 28.8108L71.8068 21.4508L71.344 21.64L70.8812 21.8292L73.8892 29.1892L74.352 29ZM71.344 21.64V21.14H60.368V21.64V22.14H71.344V21.64ZM60.368 21.64L59.9059 21.4491L56.8659 28.8091L57.328 29L57.7901 29.1909L60.8301 21.8309L60.368 21.64ZM57.328 29V28.5H56.08V29V29.5H57.328V29ZM56.08 29L56.5425 29.19L65.6945 6.91804L65.232 6.728L64.7695 6.53796L55.6175 28.81L56.08 29ZM60.848 20.488V20.988H70.864V20.488V19.988H60.848V20.488ZM70.864 20.488L71.3265 20.2979L66.3025 8.07393L65.84 8.264L65.3775 8.45407L70.4015 20.6781L70.864 20.488ZM65.84 8.264L65.3771 8.07497L60.3851 20.299L60.848 20.488L61.3109 20.677L66.3029 8.45303L65.84 8.264Z" fill="white" mask="url(#path-5-outside-3_5306_3774)"/>
</svg>
