<svg width="78" height="32" viewBox="0 0 78 32" fill="none" xmlns="http://www.w3.org/2000/svg">
<mask id="path-1-outside-1_5506_153" maskUnits="userSpaceOnUse" x="2" y="5" width="20" height="26" fill="black">
<rect fill="white" x="2" y="5" width="20" height="26"/>
<path d="M4.16 6.728H19.84V7.912H5.344V16.936H17.952V18.12H5.344V27.816H19.84V29H4.16V6.728Z"/>
</mask>
<path d="M4.16 6.728H19.84V7.912H5.344V16.936H17.952V18.12H5.344V27.816H19.84V29H4.16V6.728Z" fill="#BA0101"/>
<path d="M4.16 6.728V5.428H2.86V6.728H4.16ZM19.84 6.728H21.14V5.428H19.84V6.728ZM19.84 7.912V9.212H21.14V7.912H19.84ZM5.344 7.912V6.612H4.044V7.912H5.344ZM5.344 16.936H4.044V18.236H5.344V16.936ZM17.952 16.936H19.252V15.636H17.952V16.936ZM17.952 18.12V19.42H19.252V18.12H17.952ZM5.344 18.12V16.82H4.044V18.12H5.344ZM5.344 27.816H4.044V29.116H5.344V27.816ZM19.84 27.816H21.14V26.516H19.84V27.816ZM19.84 29V30.3H21.14V29H19.84ZM4.16 29H2.86V30.3H4.16V29ZM4.16 6.728V8.028H19.84V6.728V5.428H4.16V6.728ZM19.84 6.728H18.54V7.912H19.84H21.14V6.728H19.84ZM19.84 7.912V6.612H5.344V7.912V9.212H19.84V7.912ZM5.344 7.912H4.044V16.936H5.344H6.644V7.912H5.344ZM5.344 16.936V18.236H17.952V16.936V15.636H5.344V16.936ZM17.952 16.936H16.652V18.12H17.952H19.252V16.936H17.952ZM17.952 18.12V16.82H5.344V18.12V19.42H17.952V18.12ZM5.344 18.12H4.044V27.816H5.344H6.644V18.12H5.344ZM5.344 27.816V29.116H19.84V27.816V26.516H5.344V27.816ZM19.84 27.816H18.54V29H19.84H21.14V27.816H19.84ZM19.84 29V27.7H4.16V29V30.3H19.84V29ZM4.16 29H5.46V6.728H4.16H2.86V29H4.16Z" fill="#BA0101" mask="url(#path-1-outside-1_5506_153)"/>
<mask id="path-3-outside-2_5506_153" maskUnits="userSpaceOnUse" x="28" y="6" width="22" height="24" fill="black">
<rect fill="white" x="28" y="6" width="22" height="24"/>
<path d="M38.072 17.864L29.528 6.728H31.064L38.84 16.872L46.648 6.728H48.152L39.608 17.864L48.152 29H46.648L38.84 18.856L31.064 29H29.528L38.072 17.864Z"/>
</mask>
<path d="M38.072 17.864L29.528 6.728H31.064L38.84 16.872L46.648 6.728H48.152L39.608 17.864L48.152 29H46.648L38.84 18.856L31.064 29H29.528L38.072 17.864Z" fill="#0A095D"/>
<path d="M38.072 17.864L38.4687 18.1684L38.7022 17.864L38.4687 17.5596L38.072 17.864ZM29.528 6.728V6.228H28.5142L29.1313 7.03236L29.528 6.728ZM31.064 6.728L31.4608 6.42381L31.3107 6.228H31.064V6.728ZM38.84 16.872L38.4432 17.1762L38.8392 17.6928L39.2362 17.177L38.84 16.872ZM46.648 6.728V6.228H46.4019L46.2518 6.42302L46.648 6.728ZM48.152 6.728L48.5487 7.03236L49.1658 6.228H48.152V6.728ZM39.608 17.864L39.2113 17.5596L38.9778 17.864L39.2113 18.1684L39.608 17.864ZM48.152 29V29.5H49.1658L48.5487 28.6956L48.152 29ZM46.648 29L46.2518 29.305L46.4019 29.5H46.648V29ZM38.84 18.856L39.2362 18.551L38.8392 18.0352L38.4432 18.5518L38.84 18.856ZM31.064 29V29.5H31.3107L31.4608 29.3042L31.064 29ZM29.528 29L29.1313 28.6956L28.5142 29.5H29.528V29ZM38.072 17.864L38.4687 17.5596L29.9247 6.42364L29.528 6.728L29.1313 7.03236L37.6753 18.1684L38.072 17.864ZM29.528 6.728V7.228H31.064V6.728V6.228H29.528V6.728ZM31.064 6.728L30.6672 7.03219L38.4432 17.1762L38.84 16.872L39.2368 16.5678L31.4608 6.42381L31.064 6.728ZM38.84 16.872L39.2362 17.177L47.0442 7.03297L46.648 6.728L46.2518 6.42302L38.4438 16.567L38.84 16.872ZM46.648 6.728V7.228H48.152V6.728V6.228H46.648V6.728ZM48.152 6.728L47.7553 6.42364L39.2113 17.5596L39.608 17.864L40.0047 18.1684L48.5487 7.03236L48.152 6.728ZM39.608 17.864L39.2113 18.1684L47.7553 29.3044L48.152 29L48.5487 28.6956L40.0047 17.5596L39.608 17.864ZM48.152 29V28.5H46.648V29V29.5H48.152V29ZM46.648 29L47.0442 28.695L39.2362 18.551L38.84 18.856L38.4438 19.161L46.2518 29.305L46.648 29ZM38.84 18.856L38.4432 18.5518L30.6672 28.6958L31.064 29L31.4608 29.3042L39.2368 19.1602L38.84 18.856ZM31.064 29V28.5H29.528V29V29.5H31.064V29ZM29.528 29L29.9247 29.3044L38.4687 18.1684L38.072 17.864L37.6753 17.5596L29.1313 28.6956L29.528 29Z" fill="#0A095D" mask="url(#path-3-outside-2_5506_153)"/>
<mask id="path-5-outside-3_5506_153" maskUnits="userSpaceOnUse" x="55" y="6" width="22" height="24" fill="black">
<rect fill="white" x="55" y="6" width="22" height="24"/>
<path d="M65.232 6.728H66.48L75.632 29H74.352L71.344 21.64H60.368L57.328 29H56.08L65.232 6.728ZM60.848 20.488H70.864L65.84 8.264L60.848 20.488Z"/>
</mask>
<path d="M65.232 6.728H66.48L75.632 29H74.352L71.344 21.64H60.368L57.328 29H56.08L65.232 6.728ZM60.848 20.488H70.864L65.84 8.264L60.848 20.488Z" fill="#0A6770"/>
<path d="M65.232 6.728V6.228H64.8969L64.7695 6.53796L65.232 6.728ZM66.48 6.728L66.9425 6.53796L66.8151 6.228H66.48V6.728ZM75.632 29V29.5H76.378L76.0945 28.81L75.632 29ZM74.352 29L73.8892 29.1892L74.0162 29.5H74.352V29ZM71.344 21.64L71.8068 21.4508L71.6798 21.14H71.344V21.64ZM60.368 21.64V21.14H60.0335L59.9059 21.4491L60.368 21.64ZM57.328 29V29.5H57.6625L57.7901 29.1909L57.328 29ZM56.08 29L55.6175 28.81L55.334 29.5H56.08V29ZM60.848 20.488L60.3851 20.299L60.1037 20.988H60.848V20.488ZM70.864 20.488V20.988H71.6101L71.3265 20.2979L70.864 20.488ZM65.84 8.264L66.3025 8.07393L65.8385 6.9451L65.3771 8.07497L65.84 8.264ZM65.232 6.728V7.228H66.48V6.728V6.228H65.232V6.728ZM66.48 6.728L66.0175 6.91804L75.1695 29.19L75.632 29L76.0945 28.81L66.9425 6.53796L66.48 6.728ZM75.632 29V28.5H74.352V29V29.5H75.632V29ZM74.352 29L74.8148 28.8108L71.8068 21.4508L71.344 21.64L70.8812 21.8292L73.8892 29.1892L74.352 29ZM71.344 21.64V21.14H60.368V21.64V22.14H71.344V21.64ZM60.368 21.64L59.9059 21.4491L56.8659 28.8091L57.328 29L57.7901 29.1909L60.8301 21.8309L60.368 21.64ZM57.328 29V28.5H56.08V29V29.5H57.328V29ZM56.08 29L56.5425 29.19L65.6945 6.91804L65.232 6.728L64.7695 6.53796L55.6175 28.81L56.08 29ZM60.848 20.488V20.988H70.864V20.488V19.988H60.848V20.488ZM70.864 20.488L71.3265 20.2979L66.3025 8.07393L65.84 8.264L65.3775 8.45407L70.4015 20.6781L70.864 20.488ZM65.84 8.264L65.3771 8.07497L60.3851 20.299L60.848 20.488L61.3109 20.677L66.3029 8.45303L65.84 8.264Z" fill="#0A6770" mask="url(#path-5-outside-3_5506_153)"/>
</svg>
